<svg xmlns="http://www.w3.org/2000/svg" xmlns:xlink="http://www.w3.org/1999/xlink" width="500" zoomAndPan="magnify" viewBox="0 0 375 374.999991" height="500" preserveAspectRatio="xMidYMid meet" version="1.0"><defs><clipPath id="4e67893689"><path d="M 112.5 117 L 251 117 L 251 211.574219 L 112.5 211.574219 Z M 112.5 117 " clip-rule="nonzero"/></clipPath><clipPath id="4601eaebc3"><path d="M 235 95.324219 L 262.5 95.324219 L 262.5 123 L 235 123 Z M 235 95.324219 " clip-rule="nonzero"/></clipPath></defs><rect x="-37.5" width="450" fill="#ffffff" y="-37.499999" height="449.999989" fill-opacity="1"/><rect x="-37.5" width="450" fill="#0a2a3b" y="-37.499999" height="449.999989" fill-opacity="1"/><g clip-path="url(#4e67893689)"><path fill="#009ff5" d="M 128.867188 117.445312 L 188.085938 117.445312 L 188.085938 122.28125 L 135.9375 122.28125 C 134.003906 122.28125 132.421875 123.863281 132.421875 125.796875 L 132.421875 180.875 C 132.421875 182.808594 134.003906 184.390625 135.9375 184.390625 L 226.757812 184.390625 C 228.691406 184.390625 230.273438 182.808594 230.273438 180.875 L 230.273438 163.296875 L 237.890625 163.296875 L 237.890625 185.160156 C 237.890625 186.535156 237.199219 187.753906 236.148438 188.492188 L 237.890625 188.492188 C 237.890625 188.492188 242.1875 193.566406 250.78125 203.722656 C 249.605469 208.371094 247.265625 211.101562 243.75 211.925781 C 243.75 211.925781 202.734375 211.925781 120.703125 211.925781 C 116.65625 211.820312 113.921875 209.085938 112.5 203.722656 C 112.5 203.722656 116.796875 198.648438 125.390625 188.492188 L 126.546875 188.492188 C 125.496094 187.753906 124.804688 186.535156 124.804688 185.160156 L 124.804688 121.507812 C 124.804688 119.273438 126.632812 117.445312 128.867188 117.445312 Z M 171.679688 206.066406 L 191.601562 206.066406 C 192.566406 206.066406 193.359375 206.859375 193.359375 207.824219 C 193.359375 208.792969 192.566406 209.582031 191.601562 209.582031 L 171.679688 209.582031 C 170.714844 209.582031 169.921875 208.792969 169.921875 207.824219 C 169.921875 206.859375 170.714844 206.066406 171.679688 206.066406 Z M 160.546875 204.308594 C 162.890625 200.792969 164.0625 199.035156 164.0625 199.035156 C 187.5 199.035156 199.21875 199.035156 199.21875 199.035156 C 201.5625 202.550781 202.734375 204.308594 202.734375 204.308594 C 174.609375 204.308594 160.546875 204.308594 160.546875 204.308594 Z M 160.546875 204.308594 " fill-opacity="1" fill-rule="evenodd"/></g><path fill="#f1f1e6" d="M 172.265625 154.507812 L 183.984375 154.507812 L 183.984375 166.226562 L 172.265625 166.226562 Z M 172.265625 154.507812 " fill-opacity="1" fill-rule="evenodd"/><path fill="#ecfbff" d="M 190.429688 153.921875 L 200.835938 153.921875 L 200.835938 164.324219 L 190.429688 164.324219 Z M 190.429688 153.921875 " fill-opacity="1" fill-rule="evenodd"/><path fill="#009ff5" d="M 227.304688 135.753906 L 249.574219 135.753906 L 249.574219 158.023438 L 227.304688 158.023438 Z M 227.304688 135.753906 " fill-opacity="1" fill-rule="evenodd"/><path fill="#ecfbff" d="M 209.835938 149.890625 L 222.65625 149.890625 L 222.65625 162.710938 L 209.835938 162.710938 Z M 209.835938 149.890625 " fill-opacity="1" fill-rule="evenodd"/><path fill="#f1f1e6" d="M 198.117188 135.828125 L 210.9375 135.828125 L 210.9375 148.648438 L 198.117188 148.648438 Z M 198.117188 135.828125 " fill-opacity="1" fill-rule="evenodd"/><path fill="#009ff5" d="M 193.394531 119.386719 L 206.214844 119.386719 L 206.214844 132.207031 L 193.394531 132.207031 Z M 193.394531 119.386719 " fill-opacity="1" fill-rule="evenodd"/><path fill="#ecfbff" d="M 179.953125 141.101562 L 190.359375 141.101562 L 190.359375 151.503906 L 179.953125 151.503906 Z M 179.953125 141.101562 " fill-opacity="1" fill-rule="evenodd"/><path fill="#ecfbff" d="M 213.277344 114.074219 L 231.445312 114.074219 L 231.445312 132.242188 L 213.277344 132.242188 Z M 213.277344 114.074219 " fill-opacity="1" fill-rule="evenodd"/><path fill="#f1f1e6" d="M 216.832031 97.121094 L 229.652344 97.121094 L 229.652344 109.941406 L 216.832031 109.941406 Z M 216.832031 97.121094 " fill-opacity="1" fill-rule="evenodd"/><g clip-path="url(#4601eaebc3)"><path fill="#ecfbff" d="M 235.542969 95.324219 L 262.5 95.324219 L 262.5 122.28125 L 235.542969 122.28125 Z M 235.542969 95.324219 " fill-opacity="1" fill-rule="evenodd"/></g></svg>