<svg xmlns="http://www.w3.org/2000/svg" xmlns:xlink="http://www.w3.org/1999/xlink" width="500" zoomAndPan="magnify" viewBox="0 0 375 374.999991" height="500" preserveAspectRatio="xMidYMid meet" version="1.0"><defs><g/><clipPath id="992987070a"><path d="M 37.5 151 L 176 151 L 176 245.445312 L 37.5 245.445312 Z M 37.5 151 " clip-rule="nonzero"/></clipPath><clipPath id="3f805f3834"><path d="M 160 129.195312 L 187.5 129.195312 L 187.5 157 L 160 157 Z M 160 129.195312 " clip-rule="nonzero"/></clipPath></defs><rect x="-37.5" width="450" fill="#ffffff" y="-37.499999" height="449.999989" fill-opacity="1"/><rect x="-37.5" width="450" fill="#0a2a3b" y="-37.499999" height="449.999989" fill-opacity="1"/><g clip-path="url(#992987070a)"><path fill="#009ff5" d="M 53.867188 151.316406 L 113.085938 151.316406 L 113.085938 156.152344 L 60.9375 156.152344 C 59.003906 156.152344 57.421875 157.730469 57.421875 159.664062 L 57.421875 214.746094 C 57.421875 216.675781 59.003906 218.257812 60.9375 218.257812 L 151.757812 218.257812 C 153.691406 218.257812 155.273438 216.675781 155.273438 214.746094 L 155.273438 197.164062 L 162.890625 197.164062 L 162.890625 219.03125 C 162.890625 220.40625 162.199219 221.625 161.148438 222.359375 L 162.890625 222.359375 C 162.890625 222.359375 167.1875 227.4375 175.78125 237.59375 C 174.605469 242.238281 172.265625 244.972656 168.75 245.796875 C 168.75 245.796875 127.734375 245.796875 45.703125 245.796875 C 41.65625 245.691406 38.921875 242.957031 37.5 237.59375 C 37.5 237.59375 41.796875 232.515625 50.390625 222.359375 L 51.546875 222.359375 C 50.496094 221.625 49.804688 220.40625 49.804688 219.03125 L 49.804688 155.378906 C 49.804688 153.144531 51.632812 151.316406 53.867188 151.316406 Z M 96.679688 239.9375 L 116.601562 239.9375 C 117.566406 239.9375 118.359375 240.730469 118.359375 241.695312 C 118.359375 242.664062 117.566406 243.453125 116.601562 243.453125 L 96.679688 243.453125 C 95.714844 243.453125 94.921875 242.664062 94.921875 241.695312 C 94.921875 240.730469 95.714844 239.9375 96.679688 239.9375 Z M 85.546875 238.179688 C 87.890625 234.664062 89.0625 232.90625 89.0625 232.90625 C 112.5 232.90625 124.21875 232.90625 124.21875 232.90625 C 126.5625 236.421875 127.734375 238.179688 127.734375 238.179688 C 99.609375 238.179688 85.546875 238.179688 85.546875 238.179688 Z M 85.546875 238.179688 " fill-opacity="1" fill-rule="evenodd"/></g><path fill="#f1f1e6" d="M 97.265625 188.375 L 108.984375 188.375 L 108.984375 200.09375 L 97.265625 200.09375 Z M 97.265625 188.375 " fill-opacity="1" fill-rule="evenodd"/><path fill="#ecfbff" d="M 115.429688 187.789062 L 125.835938 187.789062 L 125.835938 198.195312 L 115.429688 198.195312 Z M 115.429688 187.789062 " fill-opacity="1" fill-rule="evenodd"/><path fill="#009ff5" d="M 152.304688 169.621094 L 174.574219 169.621094 L 174.574219 191.890625 L 152.304688 191.890625 Z M 152.304688 169.621094 " fill-opacity="1" fill-rule="evenodd"/><path fill="#ecfbff" d="M 134.835938 183.761719 L 147.65625 183.761719 L 147.65625 196.578125 L 134.835938 196.578125 Z M 134.835938 183.761719 " fill-opacity="1" fill-rule="evenodd"/><path fill="#f1f1e6" d="M 123.117188 169.699219 L 135.9375 169.699219 L 135.9375 182.519531 L 123.117188 182.519531 Z M 123.117188 169.699219 " fill-opacity="1" fill-rule="evenodd"/><path fill="#009ff5" d="M 118.394531 153.257812 L 131.214844 153.257812 L 131.214844 166.074219 L 118.394531 166.074219 Z M 118.394531 153.257812 " fill-opacity="1" fill-rule="evenodd"/><path fill="#ecfbff" d="M 104.953125 174.972656 L 115.359375 174.972656 L 115.359375 185.375 L 104.953125 185.375 Z M 104.953125 174.972656 " fill-opacity="1" fill-rule="evenodd"/><path fill="#ecfbff" d="M 138.277344 147.945312 L 156.445312 147.945312 L 156.445312 166.113281 L 138.277344 166.113281 Z M 138.277344 147.945312 " fill-opacity="1" fill-rule="evenodd"/><path fill="#f1f1e6" d="M 141.832031 130.992188 L 154.652344 130.992188 L 154.652344 143.8125 L 141.832031 143.8125 Z M 141.832031 130.992188 " fill-opacity="1" fill-rule="evenodd"/><g clip-path="url(#3f805f3834)"><path fill="#ecfbff" d="M 160.542969 129.195312 L 187.5 129.195312 L 187.5 156.152344 L 160.542969 156.152344 Z M 160.542969 129.195312 " fill-opacity="1" fill-rule="evenodd"/></g><g fill="#f4f6fc" fill-opacity="1"><g transform="translate(195.550773, 196.499987)"><g><path d="M 2.84375 0 L 6.808594 0 L 6.808594 -9.214844 L 17.113281 -9.214844 L 17.113281 -12.851562 L 6.808594 -12.851562 L 6.808594 -18.425781 L 18.488281 -18.425781 L 18.488281 -22.0625 L 2.84375 -22.0625 Z M 2.84375 0 "/></g></g></g><g fill="#f4f6fc" fill-opacity="1"><g transform="translate(214.828802, 196.499987)"><g><path d="M 2.171875 -18.550781 L 6.136719 -18.550781 L 6.136719 -22.0625 L 2.171875 -22.0625 Z M 2.265625 0 L 6.042969 0 L 6.042969 -15.601562 L 2.265625 -15.601562 Z M 2.265625 0 "/></g></g></g><g fill="#f4f6fc" fill-opacity="1"><g transform="translate(223.133184, 196.499987)"><g><path d="M 0.15625 0 L 4.792969 0 L 8.027344 -5.246094 L 11.257812 0 L 15.925781 0 L 10.554688 -7.871094 L 15.925781 -15.601562 L 11.257812 -15.601562 L 8.027344 -10.460938 L 4.792969 -15.601562 L 0.15625 -15.601562 L 5.496094 -7.871094 Z M 0.15625 0 "/></g></g></g><g fill="#f4f6fc" fill-opacity="1"><g transform="translate(239.211217, 196.499987)"><g><path d="M 2.84375 0 L 6.652344 0 L 6.652344 -15.476562 L 15.894531 0 L 19.863281 0 L 19.863281 -22.0625 L 16.050781 -22.0625 L 16.050781 -6.621094 L 6.777344 -22.0625 L 2.84375 -22.0625 Z M 2.84375 0 "/></g></g></g><g fill="#f4f6fc" fill-opacity="1"><g transform="translate(261.907779, 196.499987)"><g><path d="M 8.761719 0.3125 C 11.382812 0.3125 13.460938 -0.609375 15.164062 -2.5 L 12.539062 -4.792969 C 11.445312 -3.574219 10.195312 -3.136719 8.792969 -3.136719 C 6.339844 -3.136719 5.214844 -4.511719 4.886719 -6.558594 L 15.601562 -6.558594 C 15.675781 -6.777344 15.738281 -7.417969 15.738281 -8.058594 C 15.738281 -11.539062 13.976562 -15.925781 8.511719 -15.925781 C 3.230469 -15.925781 0.859375 -11.804688 0.859375 -7.746094 C 0.859375 -3.542969 3.386719 0.3125 8.761719 0.3125 Z M 4.886719 -9.308594 C 5.246094 -11.257812 6.230469 -12.726562 8.480469 -12.726562 C 10.460938 -12.726562 11.742188 -11.539062 11.992188 -9.308594 Z M 4.886719 -9.308594 "/></g></g></g><g fill="#f4f6fc" fill-opacity="1"><g transform="translate(278.563371, 196.499987)"><g><path d="M 6.964844 0.3125 C 9.914062 0.3125 13.054688 -1.28125 13.054688 -4.886719 C 13.054688 -10.617188 5.121094 -9.214844 5.121094 -11.570312 C 5.121094 -12.304688 5.886719 -12.914062 7.136719 -12.914062 C 8.824219 -12.914062 9.695312 -11.898438 10.226562 -10.929688 L 13.179688 -12.539062 C 11.992188 -14.648438 9.945312 -15.925781 7.261719 -15.925781 C 4.246094 -15.925781 1.46875 -14.367188 1.46875 -11.070312 C 1.46875 -5.558594 9.308594 -7.324219 9.308594 -4.699219 C 9.308594 -3.871094 8.542969 -2.84375 6.777344 -2.84375 C 4.699219 -2.84375 3.871094 -4.277344 3.449219 -5.402344 L 0.421875 -4.058594 C 1.1875 -1.65625 3.683594 0.3125 6.964844 0.3125 Z M 6.964844 0.3125 "/></g></g></g><g fill="#f4f6fc" fill-opacity="1"><g transform="translate(292.752625, 196.499987)"><g><path d="M 7.808594 0.3125 C 8.886719 0.3125 10.039062 0.0625 10.617188 -0.15625 L 10.617188 -3.605469 C 10.101562 -3.355469 9.246094 -3.046875 8.449219 -3.046875 C 7.449219 -3.046875 6.683594 -3.480469 6.683594 -4.980469 L 6.683594 -12.414062 L 10.617188 -12.414062 L 10.617188 -15.601562 L 6.683594 -15.601562 L 6.683594 -22.1875 L 2.96875 -19.472656 L 2.96875 -15.601562 L 0.390625 -15.601562 L 0.390625 -12.414062 L 2.90625 -12.414062 L 2.90625 -4.308594 C 2.90625 -1.46875 4.730469 0.3125 7.808594 0.3125 Z M 7.808594 0.3125 "/></g></g></g></svg>